<svg height="35" width="35" xmlns="http://www.w3.org/2000/svg"><mask id="a" fill="#fff"><path d="M0 .105h.5v.29H0z" fill-rule="evenodd"/></mask><mask id="b" fill="#fff"><path d="M0 0h20.978v19.095H0z" fill-rule="evenodd"/></mask><g fill="none" fill-rule="evenodd"><g fill="#04b3e7"><path d="M20.978.474v13.714c0 .17-.09.326-.236.41l-7.679 4.433a.473.473 0 01-.473 0L.237 11.9A.473.473 0 010 11.49V7.183c0-.364.394-.592.71-.41l3.965 2.29 3.071 1.772 4.844 2.796a.473.473 0 00.473 0l3.017-1.742a.473.473 0 00.236-.41V2.64c0-.168.09-.324.235-.409L20.267.065a.473.473 0 01.711.41" mask="url(#b)" transform="translate(0 15.35)"/><path d="M24.64 21.29l3.874-2.237a.398.398 0 01.597.345v5.516c0 .169-.09.325-.236.409l-3.726 2.152a.47.47 0 01-.708-.41v-5.43c0-.142.076-.273.2-.344m-4.449 4.621v-.009m8.683-18.249L15.398.162a.799.799 0 00-.815.011L.235 8.187a.663.663 0 00-.18.175l.85.497-.85-.498A.607.607 0 000 8.596v8.863c0 .175.09.325.234.415l4.441 2.56 3.071 1.773 4.369 2.524a.473.473 0 00.709-.409V20.02a.49.49 0 00-.234-.408l-.325-.187-2.896-1.67-.03-.012-4.423-2.56a.478.478 0 01-.24-.415v-3.473c0-.072.029-.137.053-.197l.003.002 7.868 4.55c.14.084.326.084.466 0l3.22-1.855.012-.011 4.45-2.568a.487.487 0 01.473-.006l2.99 1.725c.134.085.23.242.23.41v3.374c0 .306.332.498.597.345l3.874-2.238a.398.398 0 00.2-.345V8.064a.474.474 0 00-.237-.41"/></g></g></svg>